PathFileType	4	(X/Y/Z)	C:\Users\WrightLab\Desktop\Jo\P5V11.trc
DataRate	CameraRate	NumFrames	NumMarkers	Units	OrigDataRate	OrigDataStartFrame	OrigNumFrames
100.00	100.00	       42	19	mm	100.00	1	       804
Frame#	Time	Headset_Front			Headset_Back			Headset_Left			Headset_Right			Left_Shoulder			Right_Shoulder			Sternum			C7			Left Elbow			Right Elbow			Left Wrist			Right Wrist			Left ASIS			Right ASIS			S2			Left Knee			Right Knee			Left Ankle			Right Ankle			
		X1	Y1	Z1	X2	Y2	Z2	X3	Y3	Z3	X4	Y4	Z4	X5	Y5	Z5	X6	Y6	Z6	X7	Y7	Z7	X8	Y8	Z8	X9	Y9	Z9	X10	Y10	Z10	X11	Y11	Z11	X12	Y12	Z12	X13	Y13	Z13	X14	Y14	Z14	X15	Y15	Z15	X16	Y16	Z16	X17	Y17	Z17	X18	Y18	Z18	X19	Y19	Z19	

1	0.000				-20.37865	901.22540	-1458.10474																									111.39034	930.09161	-1455.32324							-298.54517	922.79718	-1456.74011				4.42027	465.56696	-1489.70789	-362.19821	460.65842	-1524.14075							
2	0.010				-19.72209	900.56897	-1458.22729																									112.00224	929.51495	-1455.09045							-298.50995	922.83643	-1456.56604				5.84576	463.91437	-1494.42151	-362.04492	460.96045	-1523.42603							
3	0.020				-18.80458	899.80054	-1460.80127																									112.19060	929.86914	-1453.75659							-298.40619	922.94232	-1456.05225				6.20242	464.17941	-1495.70837	-361.83743	461.33038	-1522.45129							
4	0.030				-18.71808	899.96057	-1460.26489																									112.88593	929.39417	-1453.92285							-298.28790	923.07495	-1455.46826				6.37440	464.73355	-1496.46033	-361.44968	461.91342	-1520.60974							
5	0.040				-18.61473	900.16663	-1459.62476																									113.02901	929.60724	-1452.90918							-298.10419	923.29437	-1454.56299				6.40564	464.80771	-1496.26123	-360.96805	462.66910	-1518.32813							
6	0.050				-17.89879	899.29077	-1461.22876																									114.08054	928.94489	-1454.65662							-297.60858	922.53815	-1455.20776				6.95912	464.21686	-1498.61560	-360.49457	463.43427	-1516.08936							
7	0.060				-17.09175	899.04474	-1463.28943																									115.03168	928.90582	-1455.91382							-296.80365	922.22247	-1455.24536				6.94853	464.19250	-1498.68335	-359.81268	464.46518	-1512.85168							
8	0.070				-16.99435	899.20966	-1462.68323																									115.88168	928.22864	-1456.75684							-296.14203	921.99304	-1453.41296				6.96885	464.28174	-1498.55774	-358.87662	464.32065	-1511.47925							
9	0.080				-16.29600	899.19336	-1464.23389																									116.03877	928.44043	-1455.64001							-295.54727	922.67523	-1450.47522				6.94908	464.23892	-1498.68445	-357.66119	463.87906	-1513.30762							
10	0.090				-16.18080	899.34357	-1463.51367																									117.08587	927.82465	-1457.60596							-294.32422	922.60144	-1450.25818				6.96393	464.24390	-1498.58655	-356.83966	463.59476	-1514.41870							
11	0.100				-16.03303	899.62128	-1462.59485																									117.23537	928.06409	-1456.54138							-293.91141	923.03912	-1448.21191				6.97769	464.24237	-1498.49524	-356.66229	463.93411	-1513.58765							
12	0.110				-15.08810	898.95685	-1464.60352																									117.89925	927.36511	-1456.61462							-293.69873	923.31177	-1447.16455				6.98031	464.25986	-1498.47961	-354.70978	461.59787	-1520.04199							
13	0.120				-14.91604	899.21832	-1463.52869																									118.05170	927.62195	-1455.52820							-292.83041	922.74664	-1448.52954				7.02859	464.36588	-1498.17078	-354.48718	461.91119	-1518.97571							
14	0.130				-14.71164	899.50702	-1462.25061																									118.21045	927.89734	-1454.39685							-292.64633	922.98444	-1447.62231				7.11688	464.49823	-1497.59949	-354.32700	462.16849	-1518.21411							
15	0.140				-14.50562	899.81232	-1460.96326																									118.39018	928.21851	-1453.11584							-291.90421	922.85931	-1449.07629				7.21370	464.64697	-1496.97327	-353.84570	462.86740	-1515.91235							
16	0.150				-14.25676	900.17175	-1459.40759																									119.06046	928.28015	-1454.74121							-291.55081	923.23120	-1449.58923				7.74776	463.83191	-1497.76416	-353.15192	463.97986	-1512.61353							
17	0.160				-12.78330	898.58765	-1462.75049																									119.19935	928.54297	-1453.75012							-290.99597	923.27722	-1451.04626				7.86882	464.08517	-1496.98779	-352.41104	465.15619	-1509.08862							
18	0.170				-12.51394	898.95563	-1461.06238																									120.28827	927.96362	-1455.24243							-290.41238	921.81659	-1452.24329				7.99184	464.29114	-1496.19348	-351.45486	465.04953	-1507.61230							
19	0.180				-12.31228	899.23145	-1459.79858																									120.43843	928.23523	-1454.16943							-290.24149	922.02783	-1451.39758				8.10953	464.51135	-1495.43591	-350.05298	464.91861	-1508.55603							
20	0.190				-11.42419	898.56628	-1460.33118																									122.03340	927.10504	-1457.75732							-289.56250	921.32813	-1452.50513				8.43502	463.43256	-1494.64124	-349.70395	465.42538	-1506.88391							
21	0.200				-10.46809	898.48303	-1461.46252																									122.16855	927.31622	-1456.78979							-289.31604	921.63110	-1451.28455				8.65398	463.87958	-1493.23560	-348.87531	465.15436	-1507.96033							
22	0.210				-10.27463	898.74707	-1460.24756																									122.35879	927.59906	-1455.42786							-288.98987	922.02997	-1449.66907				8.82179	464.23425	-1492.15955	-348.75500	465.32495	-1507.38281							
23	0.220				-10.12054	899.03583	-1459.28430																									123.41984	927.01031	-1457.30493							-287.78802	921.97687	-1449.55994				9.19741	463.45654	-1491.45776	-348.37082	464.48682	-1507.75378							
24	0.230				-9.11909	898.32977	-1461.19482																									124.03761	926.22980	-1457.71082							-287.16956	922.70886	-1446.49011				9.45142	463.94611	-1489.82422	-347.70947	463.55530	-1509.44250							
25	0.240				-8.38294	898.49963	-1462.26355																									124.21409	926.48181	-1456.44495							-286.66681	923.24841	-1443.98657				9.65866	464.34436	-1488.49146	-347.56998	463.58640	-1508.74194							
26	0.250				-8.18687	898.76025	-1461.02881																									124.35284	926.65411	-1455.44983							-285.68640	922.05609	-1444.49463				9.95591	464.91281	-1486.57935	-347.71088	463.46869	-1506.50391							
27	0.260				-7.74285	897.29291	-1460.73218																									124.50726	926.86725	-1454.34216							-285.47772	922.29395	-1443.45679				9.85581	464.62558	-1485.07227	-347.48987	463.59769	-1505.40857							
28	0.270				-7.52386	897.54132	-1459.35107																									124.67092	927.13971	-1453.16772							-285.32483	922.46356	-1442.69556				9.96648	464.81625	-1484.35889	-347.04141	464.14676	-1503.23792							
29	0.280				-7.36855	897.68982	-1458.37000																									124.81371	927.35468	-1452.14319							-285.23294	922.55219	-1442.23621				10.08044	465.02353	-1483.62524	-346.30316	465.17807	-1499.68787							
30	0.290				-7.15796	897.91339	-1457.04065																									125.45381	926.66852	-1452.38562							-285.07443	922.73346	-1441.44788				10.22550	465.27209	-1482.68994	-344.41568	464.85416	-1499.32288							
31	0.300				-6.74267	897.08081	-1456.99963																									125.59148	926.86285	-1451.39734							-285.03772	922.74854	-1441.26147				10.31137	465.38947	-1482.13367	-343.09171	466.03345	-1495.40430							
32	0.310				-6.57127	897.30652	-1455.91980																									126.60515	926.22595	-1453.61462							-284.45432	921.76532	-1443.11560				10.41772	465.57657	-1481.44836	-341.51602	465.54367	-1496.82214							
33	0.320				-6.85169	897.28577	-1453.18237																									126.75321	926.51202	-1452.54956							-284.40808	921.83026	-1442.88721				10.83166	464.72623	-1482.22021	-340.85208	466.65030	-1493.65271							
34	0.330				-6.77234	897.31689	-1452.67920																									126.98236	926.86133	-1450.90198							-284.55927	921.40393	-1441.91040				10.89050	464.81094	-1481.83923	-337.16708	468.40466	-1487.45178							
35	0.340				-6.60576	897.50348	-1451.62878																									127.90379	926.23096	-1451.23535							-284.16711	920.46930	-1443.25769				10.93148	464.84982	-1481.57214	-334.35684	466.90652	-1486.99011							
36	0.350				-6.54690	897.55371	-1451.25684																									128.11214	926.49414	-1449.73633							-284.15457	920.46942	-1443.19336				10.95277	464.81915	-1481.42896	-331.74896	466.41394	-1485.37488							
37	0.360				-6.51985	896.81171	-1450.43237																									128.25145	926.58826	-1448.73438							-284.01657	919.83521	-1443.29395				10.92572	464.68262	-1481.59534	-328.00110	467.38766	-1478.57605							
38	0.370				-6.48276	896.80646	-1450.19629																									128.51196	925.95502	-1447.85999							-284.02155	919.79303	-1443.31396				10.46723	464.79410	-1479.74744	-326.02188	467.76529	-1478.60474							
39	0.380				-7.01462	896.90302	-1447.84998																									129.69269	924.52307	-1449.99890							-283.97659	919.85822	-1443.09192				9.89544	464.83279	-1478.02954	-321.68640	468.03027	-1475.77344							
40	0.390				-7.05253	896.78717	-1448.08508																									129.85938	924.65173	-1448.79858							-283.98022	919.81171	-1443.10461				9.35471	465.36685	-1477.27185	-321.55942	471.78464	-1467.92578							
41	0.400				-7.07597	896.68719	-1448.22925																									130.25566	923.70520	-1448.89355							-283.95447	919.84235	-1442.97656				9.27229	464.98535	-1477.77991	-321.08725	472.76758	-1465.68140							
42	0.410				-7.13578	896.52429	-1448.60120																									130.38467	923.83472	-1447.96399							-283.95230	919.80505	-1442.96045				8.94039	464.07959	-1477.75171	-320.75549	473.22391	-1464.06311							
